<svg xmlns="http://www.w3.org/2000/svg" width="512" height="512" viewBox="0 0 512 512" role="img" aria-label="Haus of Balloons">
  <defs>
    <radialGradient id="balloon-red" cx="38%" cy="32%" r="70%">
      <stop offset="0%" stop-color="#bd1414"/>
      <stop offset="48%" stop-color="#930b0b"/>
      <stop offset="100%" stop-color="#7b0707"/>
    </radialGradient>
  </defs>
  <rect width="512" height="512" rx="112" ry="112" fill="#ffffff"/>
  <g transform="translate(86,66) scale(0.226)">
    <path fill="url(#balloon-red)" d="M750 1310c-151 0-285-63-383-178-96-113-149-268-149-437 0-169 53-324 149-437C465 143 599 80 750 80s285 63 383 178c96 113 149 268 149 437 0 169-53 324-149 437-98 115-232 178-383 178Z"/>
    <path fill="#fff" d="M363 598c23-159 113-290 244-354 18-9 39-1 48 17 8 18 0 39-18 48-109 53-184 164-203 299-3 18-18 31-36 31-2 0-4 0-6-1-20-3-33-21-29-40Z" opacity=".94"/>
    <path fill="#8d0b0b" d="M750 1264 637 1450h226L750 1264Z"/>
  </g>
</svg>
